<mxfile host="Electron" modified="2024-01-10T02:44:52.911Z" agent="Mozilla/5.0 (Windows NT 10.0; Win64; x64) AppleWebKit/537.36 (KHTML, like Gecko) draw.io/22.1.16 Chrome/120.0.6099.109 Electron/28.1.0 Safari/537.36" etag="5d6zSshOkMWKdjCOqCCy" version="22.1.16" type="device">
  <diagram name="Page-1" id="6nBgU7saDWeoa3w-phTC">
    <mxGraphModel dx="1948" dy="988" grid="1" gridSize="10" guides="1" tooltips="1" connect="1" arrows="1" fold="1" page="1" pageScale="1" pageWidth="850" pageHeight="1100" math="0" shadow="0">
      <root>
        <mxCell id="0" />
        <mxCell id="1" parent="0" />
        <mxCell id="WWaVnhqlrNM5JWbUGNf1-7" value="Stack" style="outlineConnect=0;gradientColor=none;html=1;whiteSpace=wrap;fontSize=14;fontStyle=1;strokeColor=#E7157B;fillColor=none;verticalAlign=top;align=center;fontColor=#E7157B;dashed=1;spacingTop=3;strokeWidth=2;" vertex="1" parent="1">
          <mxGeometry x="340" y="641" width="450" height="289" as="geometry" />
        </mxCell>
        <mxCell id="WWaVnhqlrNM5JWbUGNf1-6" value="Delete stack" style="edgeStyle=orthogonalEdgeStyle;rounded=0;orthogonalLoop=1;jettySize=auto;html=1;" edge="1" parent="1" source="WWaVnhqlrNM5JWbUGNf1-1" target="WWaVnhqlrNM5JWbUGNf1-2">
          <mxGeometry relative="1" as="geometry" />
        </mxCell>
        <mxCell id="WWaVnhqlrNM5JWbUGNf1-1" value="User" style="sketch=0;outlineConnect=0;fontColor=#232F3E;gradientColor=none;fillColor=#232F3D;strokeColor=none;dashed=0;verticalLabelPosition=bottom;verticalAlign=top;align=center;html=1;fontSize=12;fontStyle=0;aspect=fixed;pointerEvents=1;shape=mxgraph.aws4.user;" vertex="1" parent="1">
          <mxGeometry x="-90" y="746.5" width="78" height="78" as="geometry" />
        </mxCell>
        <mxCell id="WWaVnhqlrNM5JWbUGNf1-12" style="edgeStyle=orthogonalEdgeStyle;rounded=0;orthogonalLoop=1;jettySize=auto;html=1;" edge="1" parent="1" source="WWaVnhqlrNM5JWbUGNf1-2" target="WWaVnhqlrNM5JWbUGNf1-7">
          <mxGeometry relative="1" as="geometry" />
        </mxCell>
        <mxCell id="WWaVnhqlrNM5JWbUGNf1-2" value="AWS CloudFormation" style="sketch=0;points=[[0,0,0],[0.25,0,0],[0.5,0,0],[0.75,0,0],[1,0,0],[0,1,0],[0.25,1,0],[0.5,1,0],[0.75,1,0],[1,1,0],[0,0.25,0],[0,0.5,0],[0,0.75,0],[1,0.25,0],[1,0.5,0],[1,0.75,0]];points=[[0,0,0],[0.25,0,0],[0.5,0,0],[0.75,0,0],[1,0,0],[0,1,0],[0.25,1,0],[0.5,1,0],[0.75,1,0],[1,1,0],[0,0.25,0],[0,0.5,0],[0,0.75,0],[1,0.25,0],[1,0.5,0],[1,0.75,0]];outlineConnect=0;fontColor=#232F3E;fillColor=#E7157B;strokeColor=#ffffff;dashed=0;verticalLabelPosition=bottom;verticalAlign=top;align=center;html=1;fontSize=12;fontStyle=0;aspect=fixed;shape=mxgraph.aws4.resourceIcon;resIcon=mxgraph.aws4.cloudformation;" vertex="1" parent="1">
          <mxGeometry x="160" y="746.5" width="78" height="78" as="geometry" />
        </mxCell>
        <mxCell id="WWaVnhqlrNM5JWbUGNf1-3" value="" style="sketch=0;outlineConnect=0;fontColor=#232F3E;gradientColor=none;fillColor=#E7157B;strokeColor=none;dashed=0;verticalLabelPosition=bottom;verticalAlign=top;align=center;html=1;fontSize=12;fontStyle=0;aspect=fixed;pointerEvents=1;shape=mxgraph.aws4.stack;" vertex="1" parent="1">
          <mxGeometry x="340" y="641" width="78" height="76" as="geometry" />
        </mxCell>
        <mxCell id="WWaVnhqlrNM5JWbUGNf1-8" value="EmptyBucket()" style="edgeStyle=orthogonalEdgeStyle;rounded=0;orthogonalLoop=1;jettySize=auto;html=1;" edge="1" parent="1" source="WWaVnhqlrNM5JWbUGNf1-4" target="WWaVnhqlrNM5JWbUGNf1-5">
          <mxGeometry relative="1" as="geometry" />
        </mxCell>
        <mxCell id="WWaVnhqlrNM5JWbUGNf1-4" value="Lambda" style="sketch=0;points=[[0,0,0],[0.25,0,0],[0.5,0,0],[0.75,0,0],[1,0,0],[0,1,0],[0.25,1,0],[0.5,1,0],[0.75,1,0],[1,1,0],[0,0.25,0],[0,0.5,0],[0,0.75,0],[1,0.25,0],[1,0.5,0],[1,0.75,0]];outlineConnect=0;fontColor=#232F3E;fillColor=#ED7100;strokeColor=#ffffff;dashed=0;verticalLabelPosition=bottom;verticalAlign=top;align=center;html=1;fontSize=12;fontStyle=0;aspect=fixed;shape=mxgraph.aws4.resourceIcon;resIcon=mxgraph.aws4.lambda;" vertex="1" parent="1">
          <mxGeometry x="670" y="660" width="78" height="78" as="geometry" />
        </mxCell>
        <mxCell id="WWaVnhqlrNM5JWbUGNf1-5" value="Bucket S3" style="sketch=0;points=[[0,0,0],[0.25,0,0],[0.5,0,0],[0.75,0,0],[1,0,0],[0,1,0],[0.25,1,0],[0.5,1,0],[0.75,1,0],[1,1,0],[0,0.25,0],[0,0.5,0],[0,0.75,0],[1,0.25,0],[1,0.5,0],[1,0.75,0]];outlineConnect=0;fontColor=#232F3E;fillColor=#7AA116;strokeColor=#ffffff;dashed=0;verticalLabelPosition=bottom;verticalAlign=top;align=center;html=1;fontSize=12;fontStyle=0;aspect=fixed;shape=mxgraph.aws4.resourceIcon;resIcon=mxgraph.aws4.s3;" vertex="1" parent="1">
          <mxGeometry x="670" y="820" width="78" height="78" as="geometry" />
        </mxCell>
        <mxCell id="WWaVnhqlrNM5JWbUGNf1-11" style="edgeStyle=orthogonalEdgeStyle;rounded=0;orthogonalLoop=1;jettySize=auto;html=1;" edge="1" parent="1" source="WWaVnhqlrNM5JWbUGNf1-10" target="WWaVnhqlrNM5JWbUGNf1-4">
          <mxGeometry relative="1" as="geometry" />
        </mxCell>
        <mxCell id="WWaVnhqlrNM5JWbUGNf1-10" value="Custom Resource" style="sketch=0;outlineConnect=0;fontColor=#232F3E;gradientColor=none;fillColor=#E7157B;strokeColor=none;dashed=0;verticalLabelPosition=bottom;verticalAlign=top;align=center;html=1;fontSize=12;fontStyle=0;aspect=fixed;pointerEvents=1;shape=mxgraph.aws4.resources;" vertex="1" parent="1">
          <mxGeometry x="445" y="660" width="68" height="78" as="geometry" />
        </mxCell>
      </root>
    </mxGraphModel>
  </diagram>
</mxfile>
